<mxfile host="app.diagrams.net" agent="Mozilla/5.0 (Windows NT 10.0; Win64; x64) AppleWebKit/537.36 (KHTML, like Gecko) Chrome/135.0.0.0 Safari/537.36" version="26.1.3">
  <diagram id="vkK8o-hsKimOO6CbCIKc" name="第1頁">
    <mxGraphModel dx="969" dy="517" grid="1" gridSize="10" guides="1" tooltips="1" connect="1" arrows="1" fold="1" page="1" pageScale="1" pageWidth="1169" pageHeight="827" math="0" shadow="0">
      <root>
        <mxCell id="0" />
        <mxCell id="1" parent="0" />
        <mxCell id="1qFZ0b5etKVb5s6CTwOf-1" value="&lt;font face=&quot;標楷體&quot; style=&quot;font-size: 18px;&quot;&gt;環&lt;/font&gt;&lt;div&gt;&lt;font face=&quot;標楷體&quot; style=&quot;font-size: 18px;&quot;&gt;境&lt;/font&gt;&lt;/div&gt;" style="rounded=1;whiteSpace=wrap;html=1;" parent="1" vertex="1">
          <mxGeometry x="160" y="336.79" width="60" height="177.86" as="geometry" />
        </mxCell>
        <mxCell id="iIE0ldJsGx-aEYX-XOFw-92" value="" style="rounded=1;whiteSpace=wrap;html=1;movable=1;resizable=1;rotatable=1;deletable=1;editable=1;locked=0;connectable=1;strokeWidth=1;fontFamily=標楷體;fontSize=18;fontStyle=0;strokeColor=default;gradientColor=none;" parent="1" vertex="1">
          <mxGeometry x="904.38" y="340" width="425.62" height="171.43" as="geometry" />
        </mxCell>
        <mxCell id="iIE0ldJsGx-aEYX-XOFw-129" style="edgeStyle=orthogonalEdgeStyle;rounded=0;orthogonalLoop=1;jettySize=auto;html=1;exitX=0.996;exitY=0.574;exitDx=0;exitDy=0;exitPerimeter=0;" parent="1" source="iIE0ldJsGx-aEYX-XOFw-3" target="iIE0ldJsGx-aEYX-XOFw-92" edge="1">
          <mxGeometry relative="1" as="geometry">
            <Array as="points">
              <mxPoint x="920" y="429" />
              <mxPoint x="920" y="429" />
            </Array>
          </mxGeometry>
        </mxCell>
        <mxCell id="iIE0ldJsGx-aEYX-XOFw-3" value="" style="rounded=1;whiteSpace=wrap;html=1;movable=1;resizable=1;rotatable=1;deletable=1;editable=1;locked=0;connectable=1;strokeWidth=1;fontFamily=標楷體;fontSize=18;fontStyle=0" parent="1" vertex="1">
          <mxGeometry x="270" y="270" width="550" height="276.79" as="geometry" />
        </mxCell>
        <mxCell id="iIE0ldJsGx-aEYX-XOFw-4" value="&lt;font style=&quot;font-size: 20px;&quot; color=&quot;#333333&quot;&gt;&lt;span&gt;制定&lt;/span&gt;&lt;/font&gt;" style="rounded=0;whiteSpace=wrap;html=1;strokeColor=#36393d;fillColor=#cce5ff;fontFamily=標楷體;fontSize=18;fontStyle=0;align=center;verticalAlign=middle;" parent="1" vertex="1">
          <mxGeometry x="495" y="237.86" width="100" height="60" as="geometry" />
        </mxCell>
        <mxCell id="1qFZ0b5etKVb5s6CTwOf-58" value="" style="group" parent="1" vertex="1" connectable="0">
          <mxGeometry x="314.62" y="307.86" width="155.38" height="210" as="geometry" />
        </mxCell>
        <mxCell id="iIE0ldJsGx-aEYX-XOFw-109" value="" style="group" parent="1qFZ0b5etKVb5s6CTwOf-58" vertex="1" connectable="0">
          <mxGeometry x="-1.1050498338870511" width="154.8637873754153" height="210" as="geometry" />
        </mxCell>
        <mxCell id="1qFZ0b5etKVb5s6CTwOf-41" value="" style="rounded=1;whiteSpace=wrap;html=1;movable=1;resizable=1;rotatable=1;deletable=1;editable=1;locked=0;connectable=1;strokeWidth=1;dashed=1;dashPattern=8 8;fontFamily=標楷體;fontSize=18;fontStyle=0" parent="iIE0ldJsGx-aEYX-XOFw-109" vertex="1">
          <mxGeometry y="30" width="154.8637873754153" height="180" as="geometry" />
        </mxCell>
        <mxCell id="1qFZ0b5etKVb5s6CTwOf-51" value="&lt;font color=&quot;#333333&quot;&gt;&lt;span&gt;認知&lt;/span&gt;&lt;/font&gt;" style="rounded=1;whiteSpace=wrap;html=1;strokeColor=#36393d;fillColor=#eeeeee;fontFamily=標楷體;fontSize=18;fontStyle=0" parent="iIE0ldJsGx-aEYX-XOFw-109" vertex="1">
          <mxGeometry x="51.621262458471776" width="51.62126245847176" height="60" as="geometry" />
        </mxCell>
        <mxCell id="1qFZ0b5etKVb5s6CTwOf-55" value="" style="group;fontStyle=0" parent="iIE0ldJsGx-aEYX-XOFw-109" vertex="1" connectable="0">
          <mxGeometry x="27.431893687707657" y="70" width="100" height="120" as="geometry" />
        </mxCell>
        <mxCell id="iIE0ldJsGx-aEYX-XOFw-108" value="" style="group" parent="1qFZ0b5etKVb5s6CTwOf-55" vertex="1" connectable="0">
          <mxGeometry width="100" height="120" as="geometry" />
        </mxCell>
        <mxCell id="1qFZ0b5etKVb5s6CTwOf-43" value="&lt;span&gt;&lt;font style=&quot;font-size: 20px;&quot;&gt;制度邏輯&lt;/font&gt;&lt;/span&gt;" style="rounded=0;whiteSpace=wrap;html=1;fontSize=18;fontFamily=標楷體;movable=1;resizable=1;rotatable=1;deletable=1;editable=1;locked=0;connectable=1;fillColor=#cce5ff;strokeColor=#36393d;fontStyle=0;align=center;verticalAlign=middle;" parent="iIE0ldJsGx-aEYX-XOFw-108" vertex="1">
          <mxGeometry width="100" height="60" as="geometry" />
        </mxCell>
        <mxCell id="1qFZ0b5etKVb5s6CTwOf-47" value="框架" style="rounded=0;whiteSpace=wrap;html=1;movable=1;resizable=1;rotatable=1;deletable=1;editable=1;locked=0;connectable=1;fontFamily=標楷體;fontSize=18;fontStyle=0" parent="iIE0ldJsGx-aEYX-XOFw-108" vertex="1">
          <mxGeometry x="50" y="60" width="50" height="60" as="geometry" />
        </mxCell>
        <mxCell id="1qFZ0b5etKVb5s6CTwOf-48" value="模式" style="rounded=0;whiteSpace=wrap;html=1;movable=1;resizable=1;rotatable=1;deletable=1;editable=1;locked=0;connectable=1;fontFamily=標楷體;fontSize=18;fontStyle=0" parent="iIE0ldJsGx-aEYX-XOFw-108" vertex="1">
          <mxGeometry y="60" width="50" height="60" as="geometry" />
        </mxCell>
        <mxCell id="iIE0ldJsGx-aEYX-XOFw-23" style="edgeStyle=orthogonalEdgeStyle;rounded=0;orthogonalLoop=1;jettySize=auto;html=1;exitX=1;exitY=0.5;exitDx=0;exitDy=0;" parent="1" source="1qFZ0b5etKVb5s6CTwOf-41" target="iIE0ldJsGx-aEYX-XOFw-15" edge="1">
          <mxGeometry relative="1" as="geometry" />
        </mxCell>
        <mxCell id="iIE0ldJsGx-aEYX-XOFw-24" value="&lt;font style=&quot;font-size: 20px;&quot; face=&quot;標楷體&quot;&gt;驅動&lt;/font&gt;" style="text;html=1;align=center;verticalAlign=middle;whiteSpace=wrap;rounded=0;fontFamily=Helvetica;fontSize=12;fontColor=default;" parent="1" vertex="1">
          <mxGeometry x="480.0025" y="390.93499999999995" width="54.375" height="30" as="geometry" />
        </mxCell>
        <mxCell id="iIE0ldJsGx-aEYX-XOFw-49" value="&lt;font style=&quot;font-size: 20px;&quot; face=&quot;標楷體&quot;&gt;發展&lt;/font&gt;" style="text;html=1;align=center;verticalAlign=middle;whiteSpace=wrap;rounded=0;" parent="1" vertex="1">
          <mxGeometry x="835.6325" y="390.93499999999995" width="54.375" height="30" as="geometry" />
        </mxCell>
        <mxCell id="iIE0ldJsGx-aEYX-XOFw-89" value="" style="group" parent="1" vertex="1" connectable="0">
          <mxGeometry x="930" y="368.93" width="220" height="120" as="geometry" />
        </mxCell>
        <mxCell id="iIE0ldJsGx-aEYX-XOFw-115" value="" style="group" parent="iIE0ldJsGx-aEYX-XOFw-89" vertex="1" connectable="0">
          <mxGeometry width="190" height="120" as="geometry" />
        </mxCell>
        <mxCell id="iIE0ldJsGx-aEYX-XOFw-118" value="" style="group" parent="iIE0ldJsGx-aEYX-XOFw-115" vertex="1" connectable="0">
          <mxGeometry width="190" height="120" as="geometry" />
        </mxCell>
        <mxCell id="iIE0ldJsGx-aEYX-XOFw-86" value="&lt;span&gt;&lt;font style=&quot;font-size: 20px;&quot;&gt;科技可供性&lt;/font&gt;&lt;/span&gt;" style="rounded=0;whiteSpace=wrap;html=1;fontSize=18;fontFamily=標楷體;movable=1;resizable=1;rotatable=1;deletable=1;editable=1;locked=0;connectable=1;fillColor=#cce5ff;strokeColor=#36393d;fontStyle=0" parent="iIE0ldJsGx-aEYX-XOFw-118" vertex="1">
          <mxGeometry width="190" height="60" as="geometry" />
        </mxCell>
        <mxCell id="iIE0ldJsGx-aEYX-XOFw-87" value="&lt;font&gt;&lt;span&gt;&lt;span&gt;可供性實現&lt;/span&gt;&lt;/span&gt;&lt;/font&gt;" style="rounded=0;whiteSpace=wrap;html=1;movable=1;resizable=1;rotatable=1;deletable=1;editable=1;locked=0;connectable=1;fontFamily=標楷體;fontSize=18;fontStyle=0" parent="iIE0ldJsGx-aEYX-XOFw-118" vertex="1">
          <mxGeometry x="94.99683333333337" y="59.99685750222193" width="95" height="60" as="geometry" />
        </mxCell>
        <mxCell id="iIE0ldJsGx-aEYX-XOFw-88" value="&lt;font&gt;&lt;span&gt;技術可供性&lt;/span&gt;&lt;/font&gt;" style="rounded=0;whiteSpace=wrap;html=1;movable=1;resizable=1;rotatable=1;deletable=1;editable=1;locked=0;connectable=1;fontFamily=標楷體;fontSize=18;fontStyle=0" parent="iIE0ldJsGx-aEYX-XOFw-118" vertex="1">
          <mxGeometry y="60" width="95" height="60" as="geometry" />
        </mxCell>
        <mxCell id="iIE0ldJsGx-aEYX-XOFw-93" value="&lt;font style=&quot;font-size: 20px;&quot; color=&quot;#333333&quot;&gt;數位創新&lt;/font&gt;" style="rounded=0;whiteSpace=wrap;html=1;strokeColor=#36393d;fillColor=#cce5ff;fontFamily=標楷體;fontSize=18;fontStyle=0;align=center;verticalAlign=middle;" parent="1" vertex="1">
          <mxGeometry x="1067.193959093799" y="297.86" width="100" height="60" as="geometry" />
        </mxCell>
        <mxCell id="iIE0ldJsGx-aEYX-XOFw-73" value="&lt;font style=&quot;font-size: 20px;&quot; face=&quot;標楷體&quot;&gt;產生&lt;/font&gt;" style="text;html=1;align=center;verticalAlign=middle;whiteSpace=wrap;rounded=0;fontFamily=Helvetica;fontSize=12;fontColor=default;" parent="1" vertex="1">
          <mxGeometry x="1140.4625" y="393.3949999999999" width="54.375" height="30" as="geometry" />
        </mxCell>
        <mxCell id="iIE0ldJsGx-aEYX-XOFw-96" value="結果" style="rounded=1;whiteSpace=wrap;html=1;fontSize=18;fontFamily=標楷體;movable=1;resizable=1;rotatable=1;deletable=1;editable=1;locked=0;connectable=1;fontStyle=0;fillColor=#eeeeee;strokeColor=#36393d;" parent="1" vertex="1">
          <mxGeometry x="1210" y="398.93" width="100" height="60" as="geometry" />
        </mxCell>
        <mxCell id="iIE0ldJsGx-aEYX-XOFw-100" value="&lt;font style=&quot;font-size: 20px;&quot;&gt;數位創新&lt;/font&gt;&lt;div&gt;&lt;font style=&quot;font-size: 20px;&quot;&gt;產品與服務&lt;/font&gt;&lt;/div&gt;" style="rounded=0;whiteSpace=wrap;html=1;fontSize=18;fontFamily=標楷體;movable=1;resizable=1;rotatable=1;deletable=1;editable=1;locked=0;connectable=1;fontStyle=0" parent="1" vertex="1">
          <mxGeometry x="1380" y="398.93" width="160" height="60" as="geometry" />
        </mxCell>
        <mxCell id="iIE0ldJsGx-aEYX-XOFw-83" value="&lt;font style=&quot;font-size: 20px;&quot; face=&quot;標楷體&quot;&gt;影響&lt;/font&gt;" style="text;html=1;align=center;verticalAlign=middle;whiteSpace=wrap;rounded=0;" parent="1" vertex="1">
          <mxGeometry x="835.6325" y="570" width="54.375" height="30" as="geometry" />
        </mxCell>
        <mxCell id="iIE0ldJsGx-aEYX-XOFw-114" value="" style="group" parent="1" vertex="1" connectable="0">
          <mxGeometry x="548.9091733218195" y="307.86" width="232.19000000000005" height="210" as="geometry" />
        </mxCell>
        <mxCell id="iIE0ldJsGx-aEYX-XOFw-15" value="" style="rounded=1;whiteSpace=wrap;html=1;movable=1;resizable=1;rotatable=1;deletable=1;editable=1;locked=0;connectable=1;strokeWidth=1;dashed=1;dashPattern=8 8;fontFamily=標楷體;fontSize=18;fontStyle=0" parent="iIE0ldJsGx-aEYX-XOFw-114" vertex="1">
          <mxGeometry y="30" width="232.19000000000005" height="180" as="geometry" />
        </mxCell>
        <mxCell id="iIE0ldJsGx-aEYX-XOFw-16" value="&lt;font color=&quot;#333333&quot;&gt;&lt;span&gt;行動&lt;/span&gt;&lt;/font&gt;" style="rounded=1;whiteSpace=wrap;html=1;strokeColor=#36393d;fillColor=#eeeeee;fontFamily=標楷體;fontSize=18;fontStyle=0" parent="iIE0ldJsGx-aEYX-XOFw-114" vertex="1">
          <mxGeometry x="77.39666666666665" width="77.39666666666669" height="60" as="geometry" />
        </mxCell>
        <mxCell id="iIE0ldJsGx-aEYX-XOFw-113" value="" style="group" parent="iIE0ldJsGx-aEYX-XOFw-114" vertex="1" connectable="0">
          <mxGeometry x="41.09500000000003" y="70" width="150" height="120" as="geometry" />
        </mxCell>
        <mxCell id="iIE0ldJsGx-aEYX-XOFw-21" value="&lt;font&gt;&lt;span&gt;&lt;span&gt;流程&lt;/span&gt;&lt;/span&gt;&lt;/font&gt;" style="rounded=0;whiteSpace=wrap;html=1;movable=1;resizable=1;rotatable=1;deletable=1;editable=1;locked=0;connectable=1;fontFamily=標楷體;fontSize=18;fontStyle=0" parent="iIE0ldJsGx-aEYX-XOFw-113" vertex="1">
          <mxGeometry x="99.99582667818049" y="57.139999999999986" width="50" height="62.86" as="geometry" />
        </mxCell>
        <mxCell id="iIE0ldJsGx-aEYX-XOFw-18" value="&lt;span&gt;&lt;font style=&quot;font-size: 20px;&quot;&gt;動態能力&lt;/font&gt;&lt;/span&gt;" style="rounded=0;whiteSpace=wrap;html=1;fontSize=18;fontFamily=標楷體;movable=1;resizable=1;rotatable=1;deletable=1;editable=1;locked=0;connectable=1;fillColor=#cce5ff;strokeColor=#36393d;fontStyle=0" parent="iIE0ldJsGx-aEYX-XOFw-113" vertex="1">
          <mxGeometry width="150" height="60" as="geometry" />
        </mxCell>
        <mxCell id="iIE0ldJsGx-aEYX-XOFw-19" value="定位" style="rounded=0;whiteSpace=wrap;html=1;movable=1;resizable=1;rotatable=1;deletable=1;editable=1;locked=0;connectable=1;fontFamily=標楷體;fontSize=18;fontStyle=0" parent="iIE0ldJsGx-aEYX-XOFw-113" vertex="1">
          <mxGeometry x="50.00582667818048" y="60" width="49.99" height="60" as="geometry" />
        </mxCell>
        <mxCell id="iIE0ldJsGx-aEYX-XOFw-20" value="路徑" style="rounded=0;whiteSpace=wrap;html=1;movable=1;resizable=1;rotatable=1;deletable=1;editable=1;locked=0;connectable=1;fontFamily=標楷體;fontSize=18;fontStyle=0" parent="iIE0ldJsGx-aEYX-XOFw-113" vertex="1">
          <mxGeometry y="60" width="50" height="60" as="geometry" />
        </mxCell>
        <mxCell id="iIE0ldJsGx-aEYX-XOFw-130" style="edgeStyle=orthogonalEdgeStyle;rounded=0;orthogonalLoop=1;jettySize=auto;html=1;exitX=1;exitY=0;exitDx=0;exitDy=0;" parent="1" source="iIE0ldJsGx-aEYX-XOFw-87" edge="1">
          <mxGeometry relative="1" as="geometry">
            <mxPoint x="1210" y="429" as="targetPoint" />
            <Array as="points">
              <mxPoint x="1165" y="429" />
            </Array>
          </mxGeometry>
        </mxCell>
        <mxCell id="iIE0ldJsGx-aEYX-XOFw-131" style="edgeStyle=orthogonalEdgeStyle;rounded=0;orthogonalLoop=1;jettySize=auto;html=1;entryX=0;entryY=0.5;entryDx=0;entryDy=0;" parent="1" source="iIE0ldJsGx-aEYX-XOFw-96" target="iIE0ldJsGx-aEYX-XOFw-100" edge="1">
          <mxGeometry relative="1" as="geometry" />
        </mxCell>
        <mxCell id="iIE0ldJsGx-aEYX-XOFw-132" value="" style="endArrow=classic;html=1;rounded=0;" parent="1" edge="1">
          <mxGeometry width="50" height="50" relative="1" as="geometry">
            <mxPoint x="1440" y="460" as="sourcePoint" />
            <mxPoint x="190" y="520" as="targetPoint" />
            <Array as="points">
              <mxPoint x="1440" y="520" />
              <mxPoint x="1440" y="600" />
              <mxPoint x="900" y="600" />
              <mxPoint x="190" y="600" />
            </Array>
          </mxGeometry>
        </mxCell>
        <mxCell id="iIE0ldJsGx-aEYX-XOFw-134" style="edgeStyle=orthogonalEdgeStyle;rounded=0;orthogonalLoop=1;jettySize=auto;html=1;" parent="1" source="1qFZ0b5etKVb5s6CTwOf-1" edge="1">
          <mxGeometry relative="1" as="geometry">
            <mxPoint x="310" y="425.7199999999999" as="targetPoint" />
          </mxGeometry>
        </mxCell>
      </root>
    </mxGraphModel>
  </diagram>
</mxfile>
